<svg width="230" height="183" viewBox="0 0 230 183" fill="none" xmlns="http://www.w3.org/2000/svg">
<rect x="2.5" y="2.5" width="225" height="178" fill="url(#paint0_linear_1_5)" stroke="black" stroke-width="5" stroke-linejoin="round"/>
<g filter="url(#filter0_bd_1_5)">
<path d="M56 71V39H48V31H72V39H64V71H56ZM88 71V31H112V39H120V47H112V63H120V71H112V63H104V55H96V71H88ZM96 47H111.68V39H96V47ZM136 71V31H144V71H136ZM160 71V31H184V39H192V63H184V71H160ZM168 63H183.68V39H168V63ZM48 153V145H56V153H48ZM72 153V113H80V153H72ZM104 153V145H96V121H104V113H120V121H128V145H120V153H104ZM104 144.68H120V121.32H104V144.68Z" fill="black"/>
</g>
<defs>
<filter id="filter0_bd_1_5" x="44" y="27" width="152" height="134" filterUnits="userSpaceOnUse" color-interpolation-filters="sRGB">
<feFlood flood-opacity="0" result="BackgroundImageFix"/>
<feGaussianBlur in="BackgroundImageFix" stdDeviation="2"/>
<feComposite in2="SourceAlpha" operator="in" result="effect1_backgroundBlur_1_5"/>
<feColorMatrix in="SourceAlpha" type="matrix" values="0 0 0 0 0 0 0 0 0 0 0 0 0 0 0 0 0 0 127 0" result="hardAlpha"/>
<feOffset dy="4"/>
<feGaussianBlur stdDeviation="2"/>
<feComposite in2="hardAlpha" operator="out"/>
<feColorMatrix type="matrix" values="0 0 0 0 0 0 0 0 0 0 0 0 0 0 0 0 0 0 0.25 0"/>
<feBlend mode="normal" in2="effect1_backgroundBlur_1_5" result="effect2_dropShadow_1_5"/>
<feBlend mode="normal" in="SourceGraphic" in2="effect2_dropShadow_1_5" result="shape"/>
</filter>
<linearGradient id="paint0_linear_1_5" x1="5" y1="91.5" x2="225" y2="91.5" gradientUnits="userSpaceOnUse">
<stop stop-color="#3DDC84"/>
<stop offset="1" stop-color="#0553B1"/>
</linearGradient>
</defs>
</svg>
